# xmcd
#
# Track frame offsets: 
#        150
#        14708
#        28113
#        44716
#        58365
#        73458
#        90632
#
# Disc length: 1403 seconds
#
# Revision: 0
# Processed by: cddbd v1.5.2PL0 Copyright (c) Steve Scherf et al.
# Submitted via: ExactAudioCopyFreeDBPlugin 1.0
#
DISCID=6e057907
DTITLE=Steve Rodgers - Steve Rodgers
DYEAR=2009
DGENRE=Alt Country
TTITLE0=100 Times
TTITLE1=The River
TTITLE2=Haunted
TTITLE3=Yesterday
TTITLE4=Clouds
TTITLE5=Sorrow
TTITLE6=Sunshine
EXTD=
EXTT0=
EXTT1=
EXTT2=
EXTT3=
EXTT4=
EXTT5=
EXTT6=
PLAYORDER=
